<svg width="192" height="192" viewBox="0 0 192 192" fill="none" xmlns="http://www.w3.org/2000/svg">
  <rect x="95" y="-16" width="158.739" height="158.739" rx="48" transform="rotate(45 95 -16)" fill="#E3E7F1"/>
  <path d="M124.118 11.6468C108.589 -3.88225 83.4113 -3.88225 67.8823 11.6468L11.6468 67.8822C-3.88225 83.4112 -3.88225 108.589 11.6468 124.118L34.2059 146.677C23.116 133.006 16.471 115.584 16.471 96.6093C16.471 52.6866 52.0774 17.0803 96 17.0803C139.102 17.0803 174.196 51.3688 175.492 94.1568C175.492 94.167 175.506 94.1702 175.51 94.1611C175.515 94.1519 175.529 94.1552 175.529 94.1655V122.051C175.529 125.691 172.578 128.642 168.938 128.642H163.881C157.448 128.642 152.233 123.427 152.233 116.994V96.6093C152.233 65.5529 127.056 40.3766 96 40.3766C64.9436 40.3766 39.7674 65.5529 39.7674 96.6093C39.7674 127.666 64.9436 152.842 96 152.842C103.282 152.842 110.568 152.834 117.857 152.826H117.943L117.986 152.826C129.204 152.814 140.429 152.801 151.653 152.818L180.353 124.118C195.882 108.589 195.882 83.4113 180.353 67.8823L124.118 11.6468Z" fill="#101216"/>
  <path d="M128.333 176.138L124.118 180.353C108.589 195.882 83.4113 195.882 67.8822 180.353L45.9324 158.403C59.0133 169.015 75.5297 175.557 93.5541 176.101C93.5643 176.102 93.5673 176.116 93.5578 176.12C93.5541 176.121 93.5523 176.125 93.552 176.128C93.5518 176.13 93.5525 176.133 93.5542 176.135C93.5558 176.137 93.5583 176.138 93.5616 176.138H128.333Z" fill="#101216"/>
  <circle cx="96" cy="96" r="32" fill="#E3E7F1"/>
</svg>
  